<mxfile host="app.diagrams.net" agent="Mozilla/5.0 (Windows NT 10.0; Win64; x64; rv:143.0) Gecko/20100101 Firefox/143.0" version="28.2.4">
  <diagram name="Halaman-1" id="tTr4Sm9px9nTp-mMhctp">
    <mxGraphModel dx="3318" dy="1334" grid="1" gridSize="10" guides="1" tooltips="1" connect="1" arrows="1" fold="1" page="1" pageScale="1" pageWidth="827" pageHeight="1169" math="0" shadow="0">
      <root>
        <mxCell id="0" />
        <mxCell id="1" parent="0" />
        <mxCell id="HgTaA-0NTDk846YYjwK8-8" value="" style="edgeStyle=orthogonalEdgeStyle;rounded=0;orthogonalLoop=1;jettySize=auto;html=1;" edge="1" parent="1" source="HgTaA-0NTDk846YYjwK8-1" target="HgTaA-0NTDk846YYjwK8-7">
          <mxGeometry relative="1" as="geometry" />
        </mxCell>
        <mxCell id="HgTaA-0NTDk846YYjwK8-1" value="Start" style="ellipse;whiteSpace=wrap;html=1;" vertex="1" parent="1">
          <mxGeometry x="183" y="1" width="120" height="80" as="geometry" />
        </mxCell>
        <mxCell id="HgTaA-0NTDk846YYjwK8-52" style="edgeStyle=orthogonalEdgeStyle;rounded=0;orthogonalLoop=1;jettySize=auto;html=1;exitX=0.5;exitY=1;exitDx=0;exitDy=0;entryX=0;entryY=0.5;entryDx=0;entryDy=0;" edge="1" parent="1" source="HgTaA-0NTDk846YYjwK8-7" target="HgTaA-0NTDk846YYjwK8-18">
          <mxGeometry relative="1" as="geometry" />
        </mxCell>
        <mxCell id="HgTaA-0NTDk846YYjwK8-7" value="&lt;div&gt;name = &quot;Ancel&quot;,&lt;/div&gt;&lt;div&gt;nim = &quot;2509106099&quot;,&lt;/div&gt;&lt;div&gt;percobaan = 0&lt;/div&gt;&lt;div&gt;total = 0&lt;/div&gt;" style="whiteSpace=wrap;html=1;" vertex="1" parent="1">
          <mxGeometry x="172" y="159" width="140" height="71" as="geometry" />
        </mxCell>
        <mxCell id="HgTaA-0NTDk846YYjwK8-40" value="" style="edgeStyle=orthogonalEdgeStyle;rounded=0;orthogonalLoop=1;jettySize=auto;html=1;" edge="1" parent="1" target="HgTaA-0NTDk846YYjwK8-39">
          <mxGeometry relative="1" as="geometry">
            <mxPoint x="338.2499999999999" y="373" as="sourcePoint" />
            <mxPoint x="353" y="498" as="targetPoint" />
            <Array as="points">
              <mxPoint x="360" y="373" />
            </Array>
          </mxGeometry>
        </mxCell>
        <mxCell id="HgTaA-0NTDk846YYjwK8-134" style="edgeStyle=orthogonalEdgeStyle;rounded=0;orthogonalLoop=1;jettySize=auto;html=1;exitX=0.472;exitY=0.936;exitDx=0;exitDy=0;entryX=0;entryY=0.5;entryDx=0;entryDy=0;exitPerimeter=0;" edge="1" parent="1" source="HgTaA-0NTDk846YYjwK8-18">
          <mxGeometry relative="1" as="geometry">
            <mxPoint x="-18" y="375" as="sourcePoint" />
            <mxPoint x="-81" y="3090.0000000000005" as="targetPoint" />
            <Array as="points">
              <mxPoint x="156" y="375" />
              <mxPoint x="-230" y="375" />
              <mxPoint x="-230" y="1640" />
              <mxPoint x="-236" y="1640" />
              <mxPoint x="-236" y="3090" />
            </Array>
          </mxGeometry>
        </mxCell>
        <mxCell id="HgTaA-0NTDk846YYjwK8-18" value="percobaan&amp;nbsp;&lt;sub&gt;&amp;lt; 3&lt;/sub&gt;" style="rhombus;whiteSpace=wrap;html=1;direction=south;" vertex="1" parent="1">
          <mxGeometry x="143" y="280" width="198.25" height="190" as="geometry" />
        </mxCell>
        <mxCell id="HgTaA-0NTDk846YYjwK8-42" value="" style="edgeStyle=orthogonalEdgeStyle;rounded=0;orthogonalLoop=1;jettySize=auto;html=1;" edge="1" parent="1" source="HgTaA-0NTDk846YYjwK8-39" target="HgTaA-0NTDk846YYjwK8-41">
          <mxGeometry relative="1" as="geometry" />
        </mxCell>
        <mxCell id="HgTaA-0NTDk846YYjwK8-39" value="masukan_name" style="shape=parallelogram;perimeter=parallelogramPerimeter;whiteSpace=wrap;html=1;fixedSize=1;" vertex="1" parent="1">
          <mxGeometry x="298.005" y="503" width="120" height="60" as="geometry" />
        </mxCell>
        <mxCell id="HgTaA-0NTDk846YYjwK8-45" value="" style="edgeStyle=orthogonalEdgeStyle;rounded=0;orthogonalLoop=1;jettySize=auto;html=1;" edge="1" parent="1" source="HgTaA-0NTDk846YYjwK8-41" target="HgTaA-0NTDk846YYjwK8-44">
          <mxGeometry relative="1" as="geometry" />
        </mxCell>
        <mxCell id="HgTaA-0NTDk846YYjwK8-41" value="password" style="shape=parallelogram;perimeter=parallelogramPerimeter;whiteSpace=wrap;html=1;fixedSize=1;" vertex="1" parent="1">
          <mxGeometry x="298.005" y="624" width="120" height="60" as="geometry" />
        </mxCell>
        <mxCell id="HgTaA-0NTDk846YYjwK8-47" value="" style="edgeStyle=orthogonalEdgeStyle;rounded=0;orthogonalLoop=1;jettySize=auto;html=1;" edge="1" parent="1" source="HgTaA-0NTDk846YYjwK8-44" target="HgTaA-0NTDk846YYjwK8-46">
          <mxGeometry relative="1" as="geometry" />
        </mxCell>
        <mxCell id="HgTaA-0NTDk846YYjwK8-128" value="" style="edgeStyle=orthogonalEdgeStyle;rounded=0;orthogonalLoop=1;jettySize=auto;html=1;" edge="1" parent="1" source="HgTaA-0NTDk846YYjwK8-44" target="HgTaA-0NTDk846YYjwK8-127">
          <mxGeometry relative="1" as="geometry" />
        </mxCell>
        <mxCell id="HgTaA-0NTDk846YYjwK8-44" value="Masukan_name == name and password == nim" style="rhombus;whiteSpace=wrap;html=1;" vertex="1" parent="1">
          <mxGeometry x="263" y="713" width="190.01" height="150" as="geometry" />
        </mxCell>
        <mxCell id="HgTaA-0NTDk846YYjwK8-58" value="" style="edgeStyle=orthogonalEdgeStyle;rounded=0;orthogonalLoop=1;jettySize=auto;html=1;" edge="1" parent="1" source="HgTaA-0NTDk846YYjwK8-46" target="HgTaA-0NTDk846YYjwK8-57">
          <mxGeometry relative="1" as="geometry" />
        </mxCell>
        <mxCell id="HgTaA-0NTDk846YYjwK8-46" value="&amp;nbsp;&quot;GAS KUYY PESAN" style="whiteSpace=wrap;html=1;" vertex="1" parent="1">
          <mxGeometry x="298.005" y="934" width="120" height="60" as="geometry" />
        </mxCell>
        <mxCell id="HgTaA-0NTDk846YYjwK8-51" value="" style="endArrow=classic;html=1;rounded=0;" edge="1" parent="1">
          <mxGeometry width="50" height="50" relative="1" as="geometry">
            <mxPoint x="384.01" y="679" as="sourcePoint" />
            <mxPoint x="460" y="679" as="targetPoint" />
          </mxGeometry>
        </mxCell>
        <mxCell id="HgTaA-0NTDk846YYjwK8-53" value="" style="endArrow=classic;html=1;rounded=0;" edge="1" parent="1">
          <mxGeometry width="50" height="50" relative="1" as="geometry">
            <mxPoint x="384.01" y="558" as="sourcePoint" />
            <mxPoint x="450" y="560" as="targetPoint" />
          </mxGeometry>
        </mxCell>
        <mxCell id="HgTaA-0NTDk846YYjwK8-60" value="" style="edgeStyle=orthogonalEdgeStyle;rounded=0;orthogonalLoop=1;jettySize=auto;html=1;" edge="1" parent="1" source="HgTaA-0NTDk846YYjwK8-57" target="HgTaA-0NTDk846YYjwK8-59">
          <mxGeometry relative="1" as="geometry" />
        </mxCell>
        <mxCell id="HgTaA-0NTDk846YYjwK8-136" style="edgeStyle=orthogonalEdgeStyle;rounded=0;orthogonalLoop=1;jettySize=auto;html=1;exitX=0;exitY=0.5;exitDx=0;exitDy=0;entryX=0;entryY=0.5;entryDx=0;entryDy=0;" edge="1" parent="1">
          <mxGeometry relative="1" as="geometry">
            <mxPoint x="311" y="1075" as="sourcePoint" />
            <mxPoint x="-84" y="3090" as="targetPoint" />
            <Array as="points">
              <mxPoint x="-239" y="1075" />
              <mxPoint x="-239" y="3090" />
            </Array>
          </mxGeometry>
        </mxCell>
        <mxCell id="HgTaA-0NTDk846YYjwK8-57" value="if true" style="rhombus;whiteSpace=wrap;html=1;" vertex="1" parent="1">
          <mxGeometry x="310" y="1035" width="88.01" height="80" as="geometry" />
        </mxCell>
        <mxCell id="HgTaA-0NTDk846YYjwK8-66" value="" style="edgeStyle=orthogonalEdgeStyle;rounded=0;orthogonalLoop=1;jettySize=auto;html=1;" edge="1" parent="1" source="HgTaA-0NTDk846YYjwK8-59" target="HgTaA-0NTDk846YYjwK8-65">
          <mxGeometry relative="1" as="geometry" />
        </mxCell>
        <mxCell id="HgTaA-0NTDk846YYjwK8-59" value="MENU PILIHAN TIKET BIOSKOP XXI" style="shape=parallelogram;perimeter=parallelogramPerimeter;whiteSpace=wrap;html=1;fixedSize=1;" vertex="1" parent="1">
          <mxGeometry x="420" y="1140" width="160" height="60" as="geometry" />
        </mxCell>
        <mxCell id="HgTaA-0NTDk846YYjwK8-62" value="" style="endArrow=classic;html=1;rounded=0;" edge="1" parent="1">
          <mxGeometry width="50" height="50" relative="1" as="geometry">
            <mxPoint x="370" y="1180" as="sourcePoint" />
            <mxPoint x="439" y="1180" as="targetPoint" />
          </mxGeometry>
        </mxCell>
        <mxCell id="HgTaA-0NTDk846YYjwK8-69" value="" style="edgeStyle=orthogonalEdgeStyle;rounded=0;orthogonalLoop=1;jettySize=auto;html=1;" edge="1" parent="1" source="HgTaA-0NTDk846YYjwK8-65" target="HgTaA-0NTDk846YYjwK8-68">
          <mxGeometry relative="1" as="geometry" />
        </mxCell>
        <mxCell id="HgTaA-0NTDk846YYjwK8-65" value="pilihan" style="shape=parallelogram;perimeter=parallelogramPerimeter;whiteSpace=wrap;html=1;fixedSize=1;" vertex="1" parent="1">
          <mxGeometry x="440" y="1280" width="120" height="60" as="geometry" />
        </mxCell>
        <mxCell id="HgTaA-0NTDk846YYjwK8-67" value="" style="endArrow=classic;html=1;rounded=0;" edge="1" parent="1">
          <mxGeometry width="50" height="50" relative="1" as="geometry">
            <mxPoint x="520" y="1335" as="sourcePoint" />
            <mxPoint x="600" y="1335" as="targetPoint" />
          </mxGeometry>
        </mxCell>
        <mxCell id="HgTaA-0NTDk846YYjwK8-71" value="" style="edgeStyle=orthogonalEdgeStyle;rounded=0;orthogonalLoop=1;jettySize=auto;html=1;" edge="1" parent="1" source="HgTaA-0NTDk846YYjwK8-68" target="HgTaA-0NTDk846YYjwK8-70">
          <mxGeometry relative="1" as="geometry" />
        </mxCell>
        <mxCell id="HgTaA-0NTDk846YYjwK8-76" value="" style="edgeStyle=orthogonalEdgeStyle;rounded=0;orthogonalLoop=1;jettySize=auto;html=1;" edge="1" parent="1" source="HgTaA-0NTDk846YYjwK8-68" target="HgTaA-0NTDk846YYjwK8-75">
          <mxGeometry relative="1" as="geometry" />
        </mxCell>
        <mxCell id="HgTaA-0NTDk846YYjwK8-68" value="pilihan== &quot;4&quot;" style="rhombus;whiteSpace=wrap;html=1;" vertex="1" parent="1">
          <mxGeometry x="450" y="1400" width="100" height="90" as="geometry" />
        </mxCell>
        <mxCell id="HgTaA-0NTDk846YYjwK8-70" value="&lt;div&gt;Terima kasih Telah menggunakan layanan&amp;nbsp;&lt;/div&gt;&lt;div&gt;ini&lt;/div&gt;" style="shape=parallelogram;perimeter=parallelogramPerimeter;whiteSpace=wrap;html=1;fixedSize=1;" vertex="1" parent="1">
          <mxGeometry x="580" y="1530" width="149" height="70" as="geometry" />
        </mxCell>
        <mxCell id="HgTaA-0NTDk846YYjwK8-72" value="" style="endArrow=classic;html=1;rounded=0;" edge="1" parent="1">
          <mxGeometry width="50" height="50" relative="1" as="geometry">
            <mxPoint x="540" y="1589.68" as="sourcePoint" />
            <mxPoint x="598.01" y="1589.68" as="targetPoint" />
          </mxGeometry>
        </mxCell>
        <mxCell id="HgTaA-0NTDk846YYjwK8-78" value="" style="edgeStyle=orthogonalEdgeStyle;rounded=0;orthogonalLoop=1;jettySize=auto;html=1;" edge="1" parent="1" source="HgTaA-0NTDk846YYjwK8-75" target="HgTaA-0NTDk846YYjwK8-77">
          <mxGeometry relative="1" as="geometry" />
        </mxCell>
        <mxCell id="HgTaA-0NTDk846YYjwK8-82" value="" style="edgeStyle=orthogonalEdgeStyle;rounded=0;orthogonalLoop=1;jettySize=auto;html=1;" edge="1" parent="1" source="HgTaA-0NTDk846YYjwK8-75" target="HgTaA-0NTDk846YYjwK8-81">
          <mxGeometry relative="1" as="geometry" />
        </mxCell>
        <mxCell id="HgTaA-0NTDk846YYjwK8-75" value="pilihan ==&quot;1&quot;" style="rhombus;whiteSpace=wrap;html=1;" vertex="1" parent="1">
          <mxGeometry x="180" y="1550" width="93" height="90" as="geometry" />
        </mxCell>
        <mxCell id="HgTaA-0NTDk846YYjwK8-80" value="" style="edgeStyle=orthogonalEdgeStyle;rounded=0;orthogonalLoop=1;jettySize=auto;html=1;" edge="1" parent="1" source="HgTaA-0NTDk846YYjwK8-77" target="HgTaA-0NTDk846YYjwK8-79">
          <mxGeometry relative="1" as="geometry" />
        </mxCell>
        <mxCell id="HgTaA-0NTDk846YYjwK8-77" value="Jenis = &quot;Reguler" style="whiteSpace=wrap;html=1;" vertex="1" parent="1">
          <mxGeometry x="279" y="1655" width="120" height="60" as="geometry" />
        </mxCell>
        <mxCell id="HgTaA-0NTDk846YYjwK8-79" value="harga = 50.000" style="whiteSpace=wrap;html=1;" vertex="1" parent="1">
          <mxGeometry x="279" y="1795" width="120" height="60" as="geometry" />
        </mxCell>
        <mxCell id="HgTaA-0NTDk846YYjwK8-84" value="" style="edgeStyle=orthogonalEdgeStyle;rounded=0;orthogonalLoop=1;jettySize=auto;html=1;" edge="1" parent="1" source="HgTaA-0NTDk846YYjwK8-81" target="HgTaA-0NTDk846YYjwK8-83">
          <mxGeometry relative="1" as="geometry" />
        </mxCell>
        <mxCell id="HgTaA-0NTDk846YYjwK8-90" value="" style="edgeStyle=orthogonalEdgeStyle;rounded=0;orthogonalLoop=1;jettySize=auto;html=1;" edge="1" parent="1" source="HgTaA-0NTDk846YYjwK8-81" target="HgTaA-0NTDk846YYjwK8-89">
          <mxGeometry relative="1" as="geometry" />
        </mxCell>
        <mxCell id="HgTaA-0NTDk846YYjwK8-81" value="pilihan == &quot;2&quot;" style="rhombus;whiteSpace=wrap;html=1;" vertex="1" parent="1">
          <mxGeometry x="-13" y="1650" width="90" height="85" as="geometry" />
        </mxCell>
        <mxCell id="HgTaA-0NTDk846YYjwK8-86" value="" style="edgeStyle=orthogonalEdgeStyle;rounded=0;orthogonalLoop=1;jettySize=auto;html=1;" edge="1" parent="1" source="HgTaA-0NTDk846YYjwK8-83" target="HgTaA-0NTDk846YYjwK8-85">
          <mxGeometry relative="1" as="geometry" />
        </mxCell>
        <mxCell id="HgTaA-0NTDk846YYjwK8-83" value="Jenis =&quot;VIP&quot;" style="whiteSpace=wrap;html=1;" vertex="1" parent="1">
          <mxGeometry x="79" y="1745" width="120" height="60" as="geometry" />
        </mxCell>
        <mxCell id="HgTaA-0NTDk846YYjwK8-85" value="harga = 100.000" style="whiteSpace=wrap;html=1;" vertex="1" parent="1">
          <mxGeometry x="79" y="1885" width="120" height="60" as="geometry" />
        </mxCell>
        <mxCell id="HgTaA-0NTDk846YYjwK8-92" value="" style="edgeStyle=orthogonalEdgeStyle;rounded=0;orthogonalLoop=1;jettySize=auto;html=1;" edge="1" parent="1" source="HgTaA-0NTDk846YYjwK8-89" target="HgTaA-0NTDk846YYjwK8-91">
          <mxGeometry relative="1" as="geometry" />
        </mxCell>
        <mxCell id="HgTaA-0NTDk846YYjwK8-89" value="Jenis = &quot;VVIP&quot;" style="whiteSpace=wrap;html=1;" vertex="1" parent="1">
          <mxGeometry x="-170" y="1760" width="120" height="60" as="geometry" />
        </mxCell>
        <mxCell id="HgTaA-0NTDk846YYjwK8-91" value="harga = 150.000" style="whiteSpace=wrap;html=1;" vertex="1" parent="1">
          <mxGeometry x="-170" y="1886" width="120" height="64" as="geometry" />
        </mxCell>
        <mxCell id="HgTaA-0NTDk846YYjwK8-101" value="" style="edgeStyle=orthogonalEdgeStyle;rounded=0;orthogonalLoop=1;jettySize=auto;html=1;" edge="1" parent="1" source="HgTaA-0NTDk846YYjwK8-93" target="HgTaA-0NTDk846YYjwK8-100">
          <mxGeometry relative="1" as="geometry" />
        </mxCell>
        <mxCell id="HgTaA-0NTDk846YYjwK8-93" value="jumlah_tiket" style="rounded=0;whiteSpace=wrap;html=1;" vertex="1" parent="1">
          <mxGeometry x="100" y="2030" width="120" height="60" as="geometry" />
        </mxCell>
        <mxCell id="HgTaA-0NTDk846YYjwK8-95" style="edgeStyle=orthogonalEdgeStyle;rounded=0;orthogonalLoop=1;jettySize=auto;html=1;exitX=0.5;exitY=1;exitDx=0;exitDy=0;entryX=0.321;entryY=0.044;entryDx=0;entryDy=0;entryPerimeter=0;" edge="1" parent="1" source="HgTaA-0NTDk846YYjwK8-85" target="HgTaA-0NTDk846YYjwK8-93">
          <mxGeometry relative="1" as="geometry" />
        </mxCell>
        <mxCell id="HgTaA-0NTDk846YYjwK8-98" style="edgeStyle=orthogonalEdgeStyle;rounded=0;orthogonalLoop=1;jettySize=auto;html=1;exitX=0.5;exitY=1;exitDx=0;exitDy=0;entryX=0.321;entryY=0.072;entryDx=0;entryDy=0;entryPerimeter=0;" edge="1" parent="1" source="HgTaA-0NTDk846YYjwK8-91" target="HgTaA-0NTDk846YYjwK8-93">
          <mxGeometry relative="1" as="geometry" />
        </mxCell>
        <mxCell id="HgTaA-0NTDk846YYjwK8-99" style="edgeStyle=orthogonalEdgeStyle;rounded=0;orthogonalLoop=1;jettySize=auto;html=1;exitX=0.5;exitY=1;exitDx=0;exitDy=0;entryX=0.314;entryY=0.031;entryDx=0;entryDy=0;entryPerimeter=0;" edge="1" parent="1" source="HgTaA-0NTDk846YYjwK8-79" target="HgTaA-0NTDk846YYjwK8-93">
          <mxGeometry relative="1" as="geometry">
            <Array as="points">
              <mxPoint x="339" y="1990" />
              <mxPoint x="138" y="1990" />
            </Array>
          </mxGeometry>
        </mxCell>
        <mxCell id="HgTaA-0NTDk846YYjwK8-104" value="" style="edgeStyle=orthogonalEdgeStyle;rounded=0;orthogonalLoop=1;jettySize=auto;html=1;" edge="1" parent="1" source="HgTaA-0NTDk846YYjwK8-100" target="HgTaA-0NTDk846YYjwK8-103">
          <mxGeometry relative="1" as="geometry" />
        </mxCell>
        <mxCell id="HgTaA-0NTDk846YYjwK8-100" value="confirmasi" style="shape=parallelogram;perimeter=parallelogramPerimeter;whiteSpace=wrap;html=1;fixedSize=1;rounded=0;" vertex="1" parent="1">
          <mxGeometry x="100" y="2170" width="120" height="60" as="geometry" />
        </mxCell>
        <mxCell id="HgTaA-0NTDk846YYjwK8-102" value="" style="endArrow=classic;html=1;rounded=0;" edge="1" parent="1">
          <mxGeometry width="50" height="50" relative="1" as="geometry">
            <mxPoint x="172" y="2220" as="sourcePoint" />
            <mxPoint x="259" y="2220" as="targetPoint" />
          </mxGeometry>
        </mxCell>
        <mxCell id="HgTaA-0NTDk846YYjwK8-111" style="edgeStyle=orthogonalEdgeStyle;rounded=0;orthogonalLoop=1;jettySize=auto;html=1;exitX=1;exitY=0.5;exitDx=0;exitDy=0;entryX=1;entryY=0;entryDx=0;entryDy=0;" edge="1" parent="1" source="HgTaA-0NTDk846YYjwK8-103" target="HgTaA-0NTDk846YYjwK8-75">
          <mxGeometry relative="1" as="geometry">
            <Array as="points">
              <mxPoint x="490" y="2332" />
              <mxPoint x="490" y="1572" />
            </Array>
          </mxGeometry>
        </mxCell>
        <mxCell id="HgTaA-0NTDk846YYjwK8-115" value="" style="edgeStyle=orthogonalEdgeStyle;rounded=0;orthogonalLoop=1;jettySize=auto;html=1;" edge="1" parent="1" source="HgTaA-0NTDk846YYjwK8-103" target="HgTaA-0NTDk846YYjwK8-114">
          <mxGeometry relative="1" as="geometry" />
        </mxCell>
        <mxCell id="HgTaA-0NTDk846YYjwK8-103" value="confirmasi==ya" style="rhombus;whiteSpace=wrap;html=1;rounded=0;" vertex="1" parent="1">
          <mxGeometry x="96" y="2277" width="130" height="110" as="geometry" />
        </mxCell>
        <mxCell id="HgTaA-0NTDk846YYjwK8-117" value="" style="edgeStyle=orthogonalEdgeStyle;rounded=0;orthogonalLoop=1;jettySize=auto;html=1;" edge="1" parent="1" source="HgTaA-0NTDk846YYjwK8-114" target="HgTaA-0NTDk846YYjwK8-116">
          <mxGeometry relative="1" as="geometry" />
        </mxCell>
        <mxCell id="HgTaA-0NTDk846YYjwK8-114" value="confirmasi==tidak" style="rhombus;whiteSpace=wrap;html=1;rounded=0;" vertex="1" parent="1">
          <mxGeometry x="-89" y="2440" width="130" height="110" as="geometry" />
        </mxCell>
        <mxCell id="HgTaA-0NTDk846YYjwK8-121" value="" style="edgeStyle=orthogonalEdgeStyle;rounded=0;orthogonalLoop=1;jettySize=auto;html=1;" edge="1" parent="1" source="HgTaA-0NTDk846YYjwK8-116" target="HgTaA-0NTDk846YYjwK8-120">
          <mxGeometry relative="1" as="geometry" />
        </mxCell>
        <mxCell id="HgTaA-0NTDk846YYjwK8-116" value="&amp;nbsp;for w in range (jumlah_Tiket)" style="whiteSpace=wrap;html=1;rounded=0;" vertex="1" parent="1">
          <mxGeometry x="-84" y="2655" width="120" height="60" as="geometry" />
        </mxCell>
        <mxCell id="HgTaA-0NTDk846YYjwK8-123" value="" style="edgeStyle=orthogonalEdgeStyle;rounded=0;orthogonalLoop=1;jettySize=auto;html=1;" edge="1" parent="1" source="HgTaA-0NTDk846YYjwK8-120" target="HgTaA-0NTDk846YYjwK8-122">
          <mxGeometry relative="1" as="geometry" />
        </mxCell>
        <mxCell id="HgTaA-0NTDk846YYjwK8-120" value="total&amp;nbsp; +=harga" style="whiteSpace=wrap;html=1;rounded=0;" vertex="1" parent="1">
          <mxGeometry x="-84" y="2795" width="120" height="60" as="geometry" />
        </mxCell>
        <mxCell id="HgTaA-0NTDk846YYjwK8-131" style="edgeStyle=orthogonalEdgeStyle;rounded=0;orthogonalLoop=1;jettySize=auto;html=1;exitX=0.5;exitY=1;exitDx=0;exitDy=0;entryX=0.5;entryY=0;entryDx=0;entryDy=0;" edge="1" parent="1" source="HgTaA-0NTDk846YYjwK8-122" target="HgTaA-0NTDk846YYjwK8-130">
          <mxGeometry relative="1" as="geometry" />
        </mxCell>
        <mxCell id="HgTaA-0NTDk846YYjwK8-122" value="STRUK PEMBELIAN" style="shape=parallelogram;perimeter=parallelogramPerimeter;whiteSpace=wrap;html=1;fixedSize=1;rounded=0;" vertex="1" parent="1">
          <mxGeometry x="-97" y="2920" width="146" height="70" as="geometry" />
        </mxCell>
        <mxCell id="HgTaA-0NTDk846YYjwK8-124" value="" style="endArrow=classic;html=1;rounded=0;" edge="1" parent="1">
          <mxGeometry width="50" height="50" relative="1" as="geometry">
            <mxPoint x="-140" y="2970" as="sourcePoint" />
            <mxPoint x="-80" y="2970" as="targetPoint" />
          </mxGeometry>
        </mxCell>
        <mxCell id="HgTaA-0NTDk846YYjwK8-129" style="edgeStyle=orthogonalEdgeStyle;rounded=0;orthogonalLoop=1;jettySize=auto;html=1;exitX=0;exitY=0.5;exitDx=0;exitDy=0;entryX=0.61;entryY=0.898;entryDx=0;entryDy=0;entryPerimeter=0;" edge="1" parent="1" source="HgTaA-0NTDk846YYjwK8-127" target="HgTaA-0NTDk846YYjwK8-18">
          <mxGeometry relative="1" as="geometry">
            <mxPoint x="100" y="360" as="targetPoint" />
            <Array as="points">
              <mxPoint x="81" y="904" />
              <mxPoint x="81" y="396" />
            </Array>
          </mxGeometry>
        </mxCell>
        <mxCell id="HgTaA-0NTDk846YYjwK8-127" value="percobaan +=1" style="whiteSpace=wrap;html=1;" vertex="1" parent="1">
          <mxGeometry x="101.00500000000001" y="874" width="120" height="60" as="geometry" />
        </mxCell>
        <mxCell id="HgTaA-0NTDk846YYjwK8-130" value="End" style="ellipse;whiteSpace=wrap;html=1;" vertex="1" parent="1">
          <mxGeometry x="-85" y="3050" width="120" height="80" as="geometry" />
        </mxCell>
      </root>
    </mxGraphModel>
  </diagram>
</mxfile>
